<svg xmlns="http://www.w3.org/2000/svg" width="12" height="12" viewBox="0 0 12 12">
    <g fill="none" fill-rule="nonzero">
        <circle cx="6" cy="6" r="5.989" fill="#DD4814"/>
        <g fill="#FFF" transform="translate(1.099 3.085)">
            <circle cx=".829" cy="2.915" r="1"/>
            <path d="M2.974 5.805a3.48 3.48 0 0 1-1.436-2.019 1.12 1.12 0 0 0 0-1.741A3.48 3.48 0 0 1 2.974.025l.585.98a2.332 2.332 0 0 0 0 3.821l-.585.98z"/>
        </g>
        <g fill="#FFF" transform="rotate(120 4.56 4.775)">
            <circle cx=".829" cy="2.915" r="1"/>
            <path d="M2.974 5.805a3.48 3.48 0 0 1-1.436-2.019 1.12 1.12 0 0 0 0-1.741A3.48 3.48 0 0 1 2.974.025l.585.98a2.332 2.332 0 0 0 0 3.821l-.585.98z"/>
        </g>
        <g fill="#FFF" transform="rotate(-120 6.341 4.14)">
            <circle cx=".829" cy="2.915" r="1"/>
            <path d="M2.974 5.805a3.48 3.48 0 0 1-1.436-2.019 1.12 1.12 0 0 0 0-1.741A3.48 3.48 0 0 1 2.974.025l.585.98a2.332 2.332 0 0 0 0 3.821l-.585.98z"/>
        </g>
    </g>
</svg>
