<svg xmlns="http://www.w3.org/2000/svg" width="12" height="12" viewBox="0 0 12 12">
    <g fill="none" fill-rule="nonzero">
        <path fill="#EFA724" d="M5.998 5.505l-2.6-2.6 2.6-2.6 2.6 2.6z"/>
        <path fill="#932279" d="M2.901 8.603l-2.6-2.601 2.6-2.6 2.6 2.6z"/>
        <path fill="#9CCD2A" d="M1.849 1.838h3.668v3.667H1.849zM5.991 11.699L3.398 9.105 5.99 6.512l2.593 2.594z"/>
        <path fill="#262577" d="M1.849 6.474h3.677v3.677H1.849zM9.094 8.602l-2.6-2.6 2.6-2.6 2.6 2.6z"/>
        <path fill="#932279" d="M6.494 1.828h3.677v3.677H6.494z"/>
        <path fill="#262577" d="M9.094 8.602l-2.6-2.6 2.6-2.6 2.6 2.6z"/>
        <path fill="#EFA724" d="M6.494 6.474h3.677v3.677H6.494z"/>
        <path fill="#FFF" d="M6 5.641l.068-.068 2.6-2.6.07-.069-.07-.068-2.6-2.6L6 .167 5.93.236l-2.6 2.6-.068.068.068.069 2.6 2.6L6 5.64zm0-.273L3.536 2.904 6 .441l2.463 2.463L6 5.368zM2.903 8.737l.069-.068 2.596-2.596.068-.068-.068-.069-2.6-2.6-.069-.069-.068.069L.235 5.932.166 6l.069.069 2.6 2.6.068.068zm0-.273L.44 6 2.9 3.541l2.463 2.464-2.46 2.459z"/>
        <path fill="#FFF" d="M1.751 1.741V5.6H5.616V1.741H1.751zm.194.194h3.478v3.472H1.945V1.935zM5.992 11.833l.068-.069 2.592-2.591.068-.069-.068-.068L6.06 6.444l-.068-.068-.069.068-2.592 2.592-.068.068.068.069 2.592 2.591.069.069zm0-.274L3.537 9.104 5.992 6.65l2.455 2.454-2.455 2.455z"/>
        <path fill="#FFF" d="M1.751 6.374v3.871h3.871V6.374H1.751zm.194.194h3.484v3.484H1.945V6.568zM9.097 8.737l.068-.068 2.6-2.6.069-.069-.069-.068-2.6-2.6-.068-.069-.069.069-2.6 2.6L6.359 6l.069.069 2.6 2.6.069.068zm0-.273L6.633 6l2.464-2.463L11.56 6 9.097 8.464z"/>
        <path fill="#FFF" d="M6.397 1.73V5.6h3.87V1.73h-3.87zm.193.193h3.484v3.484H6.59V1.923zM6.397 6.374v3.871h3.87V6.374h-3.87zm.193.194h3.484v3.484H6.59V6.568z"/>
    </g>
</svg>
